<?xml version="1.0" encoding="utf-8"?>
<!-- Generator: Adobe Illustrator 18.1.1, SVG Export Plug-In . SVG Version: 6.00 Build 0)  -->
<svg version="1.1" id="Layer_1" xmlns="http://www.w3.org/2000/svg" xmlns:xlink="http://www.w3.org/1999/xlink" x="0px" y="0px"
	 viewBox="0 0 34 34" enable-background="new 0 0 34 34" xml:space="preserve">
<g>
	<g>
		<path d="M9.7,22.3c0.4,1.3,1,2.4,1.6,3.3c1.8,2.6,5.6,4.7,8.8,4.5c1.3-0.1,2.3-0.8,1.8-2.6C18.2,28,11.8,25.5,9.7,22.3z"/>
		<path d="M7,14.3c-0.8,4.1,6.1,12.1,9.9,8.7C12.2,20.9,8.3,17.2,7,14.3z"/>
		<path d="M24.4,14.4c-5-3.3-9.3-4.5-12.8-9.8C10.7,3.3,9.8,2,8.2,4C7.3,5.3,7,7.7,7,9.7c0,2.3,1,4.4,2.5,5.9c1.3,1.3,4.8,3.4,6.7,2
			C7.4,13.8,9.9,7.6,9.5,7.3c2.8,5.1,7.8,6.6,12.2,8.9c2.6,1.4,4.9,3.4,6,6.2C28.2,19.5,27.4,16.3,24.4,14.4z"/>
	</g>
</g>
</svg>
